<?xml version="1.0" standalone="no"?>
<!DOCTYPE svg PUBLIC "-//W3C//DTD SVG 1.1//EN" "http://www.w3.org/Graphics/SVG/1.1/DTD/svg11.dtd" >
<svg>
<metadata>
Created by FontForge 20120731 at Wed Oct 14 16:08:42 2015
 By www-data
Copyright (c) 2015 by Marco Ballare`. All rights reserved.
</metadata>
<defs>
<font id="HastaGrotesk" horiz-adv-x="560" >
  <font-face 
    font-family="Hasta Grotesk"
    font-weight="400"
    font-stretch="normal"
    units-per-em="1000"
    panose-1="2 0 5 3 0 0 0 2 0 3"
    ascent="800"
    descent="-200"
    x-height="585"
    cap-height="900"
    bbox="-104 -318 950 1166"
    underline-thickness="50"
    underline-position="-100"
    unicode-range="U+0020-20AC"
  />
    <missing-glyph />
    <glyph glyph-name="quotedblleft" unicode="&#x2018;&#x2018;" horiz-adv-x="543" 
d="M92 607l105 293h43l-90 -293h-58zM400 900h44l-90 -293h-59z" />
    <glyph glyph-name="quotedblright" unicode="&#x2019;&#x2019;" horiz-adv-x="543" 
d="M99 607l90 293h59l-105 -293h-44zM393 900h58l-105 -293h-43z" />
    <glyph glyph-name="guillemotleft" unicode="&#x3c;&#x3c;" horiz-adv-x="555" 
d="M114 292l163 -292h-61l-163 292l163 293h61zM338 292l163 -292h-61l-163 292l163 293h61z" />
    <glyph glyph-name="guillemotright" unicode="&#x3e;&#x3e;" horiz-adv-x="555" 
d="M277 292l-163 -292h-61l163 292l-163 293h61zM501 292l-163 -292h-61l163 292l-163 293h61z" />
    <glyph glyph-name="grave" unicode="`" horiz-adv-x="236" 
d="M28 900h68l106 -180h-50z" />
    <glyph glyph-name="acute" unicode="&#xb4;" horiz-adv-x="236" 
d="M140 900h68l-124 -180h-50z" />
    <glyph glyph-name="circumflex" unicode="&#x2c6;" horiz-adv-x="248" 
d="M124 853l-99 -133h-52l116 180h70l115 -180h-51z" />
    <glyph glyph-name="tilde" unicode="&#x2dc;" horiz-adv-x="248" 
d="M71 800q-29 0 -48 -22.5t-19 -53.5h-45q0 56 31 91q31 36 81 36q22 0 53 -31t53 -31q29 0 47.5 22t18.5 53h46q0 -56 -31 -91q-30 -35 -81 -35q-22 0 -53 31t-53 31z" />
    <glyph glyph-name="dieresis" unicode="&#xa8;" horiz-adv-x="248" 
d="M-14 778q-13 13 -13 32t13 32t32 13t31.5 -13t12.5 -32t-12.5 -31.5t-31.5 -12.5t-32 12zM198 778q-13 13 -13 32t13 32t32 13t32 -13t13 -32t-13 -31.5t-32 -12.5t-32 12z" />
    <glyph glyph-name="macron" unicode="&#xaf;" horiz-adv-x="248" 
d="M-27 762v51h302v-51h-302z" />
    <glyph glyph-name="cedilla" unicode="&#xb8;" horiz-adv-x="236" 
d="M191 -187q0 31 -20 52.5t-50 21.5h-48l24 136h42l-16 -90q49 -2 81 -34q32 -33 32 -86v-11q0 -53 -32 -86q-33 -33 -83 -33h-6q-36 0 -65 19t-41 50l43 17q18 -41 63 -41h6q30 0 50 21.5t20 52.5v11z" />
    <glyph glyph-name="quotesinglbase" unicode="&#x201a;" horiz-adv-x="301" 
d="M168 112h58l-105 -292h-44z" />
    <glyph glyph-name="guilsinglleft" unicode="&#x2039;" horiz-adv-x="324" 
d="M114 292l157 -292h-60l-158 292l158 293h60z" />
    <glyph glyph-name="guilsinglright" unicode="&#x203a;" horiz-adv-x="324" 
d="M271 292l-157 -292h-61l158 292l-158 293h61z" />
    <glyph glyph-name="quotedblbase" unicode="&#x201e;" horiz-adv-x="543" 
d="M99 -180l90 292h59l-105 -292h-44zM393 112h58l-105 -292h-43z" />
    <glyph glyph-name="endash" unicode="&#x2013;" horiz-adv-x="578" 
d="M47 264v57h484v-57h-484z" />
    <glyph glyph-name="emdash" unicode="&#x2014;" horiz-adv-x="873" 
d="M47 264v57h779v-57h-779z" />
    <glyph glyph-name="exclam" unicode="!" horiz-adv-x="293" 
d="M118 221v679h57v-679h-57zM115 12q-12 12 -12 31t12 31t31 12t31.5 -12t12.5 -31t-12.5 -31t-31.5 -12t-31 12z" />
    <glyph glyph-name="quotedbl" unicode="&#x22;" horiz-adv-x="348" 
d="M35 900h57v-293h-57v293zM313 900v-293h-57v293h57z" />
    <glyph glyph-name="numbersign" unicode="#" horiz-adv-x="637" 
d="M24 287v57h140l31 212h-148v57h157l42 287h57l-42 -287h164l42 287h57l-42 -287h132v-57h-141l-31 -212h148v-57h-157l-42 -287h-57l42 287h-164l-42 -287h-57l42 287h-131zM385 344l31 212h-164l-31 -212h164z" />
    <glyph glyph-name="dollar" unicode="$" horiz-adv-x="614" 
d="M531 756l-55 -16q-13 41 -41 71q-48 50 -124 50h-14q-81 0 -127 -47t-46 -131v-27q0 -57 30 -101.5t81 -54.5l186 -37q66 -13 102.5 -73.5t36.5 -138.5v-26q0 -113 -66 -178q-60 -59 -162 -64v-163h-57v163q-102 5 -162 64q-39 38 -55 97l55 16q13 -43 42 -72
q50 -49 141 -49h16q91 0 141 49t50 137v26q0 57 -29 101t-79 54l-186 37q-67 13 -104.5 74t-37.5 139v27q0 111 61 173q53 54 147 61v163h57v-163q87 -6 144 -65q40 -41 55 -96z" />
    <glyph glyph-name="percent" unicode="%" horiz-adv-x="968" 
d="M151 -45l600 990h65l-599 -990h-66zM256 900q67 0 110 -58q43 -56 43 -148v-22q0 -92 -43 -148q-43 -58 -110 -58h-8q-68 0 -111 58q-43 56 -43 148v22q0 92 43 148q43 58 111 58h8zM256 843h-8q-47 0 -72 -46t-25 -103v-22q0 -57 25 -102.5t72 -45.5h8q47 0 71.5 45.5
t24.5 102.5v22q0 57 -24.5 103t-71.5 46zM720 433q68 0 110 -57q43 -56 43 -148v-22q0 -92 -43 -148q-43 -58 -110 -58h-8q-68 0 -111 58q-42 55 -42 148v22q0 93 42 148q42 57 111 57h8zM720 376h-8q-47 0 -71.5 -45.5t-24.5 -102.5v-22q0 -57 24.5 -103t71.5 -46h8
q47 0 71.5 46t24.5 103v22q0 57 -24.5 102.5t-71.5 45.5z" />
    <glyph glyph-name="ampersand" unicode="&#x26;" horiz-adv-x="735" 
d="M708 440v-50q0 -55 -31 -89t-81 -34q-10 0 -19 5v-2q0 -57 -20 -109t-57 -93q-37 -40 -86 -63q-51 -23 -105 -23t-106 23q-50 23 -85 63q-38 42 -57.5 94t-19.5 109q0 58 19.5 110t57.5 93q18 20 39 35.5t44 26.5q-26 23 -42 53q-31 54 -31 118q0 42 13 80t38 68
q23 28 57 47q36 17 73 17t73 -17q33 -19 57 -47q24 -30 37 -68t13 -80h-67q0 30 -9 57.5t-26 48.5q-35 41 -78 41q-45 0 -78 -41q-36 -44 -36 -106q0 -47 22 -86q17 -29 41 -45t51 -16h46v-66h-46q-42 0 -78.5 -17.5t-63.5 -48t-43 -71t-16 -86.5t16 -86.5t43 -71t63.5 -48
t78.5 -17.5t78.5 17.5t63.5 48t43 71t16 86.5v52q-12 5 -20 5q-29 0 -47.5 -22t-18.5 -52v-45h-46v49q2 53 31 84q31 36 81 36q22 0 53 -31q31 -30 53 -30q29 0 47.5 21.5t18.5 51.5v50h46z" />
    <glyph glyph-name="quoteright" unicode="&#x2019;" horiz-adv-x="301" 
d="M168 900h58l-105 -293h-44z" />
    <glyph glyph-name="parenleft" unicode="(" horiz-adv-x="324" 
d="M140 -148q-105 201 -105 434v86q0 233 105 434q48 92 91 136l37 -35q-45 -43 -89 -139q-87 -182 -87 -396v-86q0 -215 87 -396q44 -96 89 -139l-37 -35q-43 44 -91 136z" />
    <glyph glyph-name="parenright" unicode=")" horiz-adv-x="324" 
d="M164 806q105 -201 105 -434v-86q0 -233 -105 -434q-48 -92 -91 -136l-37 35q45 43 89 139q87 181 87 396v86q0 214 -87 396q-44 96 -89 139l37 35q43 -44 91 -136z" />
    <glyph glyph-name="asterisk" unicode="*" horiz-adv-x="549" 
d="M246 900h57v-196l139 83v-68l-127 -76l127 -193h-67l-101 152l-101 -152h-67l128 192l-128 77v68l140 -83v196z" />
    <glyph glyph-name="plus" unicode="+" horiz-adv-x="578" 
d="M261 585h57v-264h213v-57h-213v-264h-57v264h-214v57h214v264z" />
    <glyph glyph-name="comma" unicode="," horiz-adv-x="277" 
d="M134 117h64l-140 -292h-47z" />
    <glyph glyph-name="period" unicode="." horiz-adv-x="246" 
d="M92 12q-12 12 -12 31t12 31t31 12t31 -12t12 -31t-12 -31t-31 -12t-31 12z" />
    <glyph glyph-name="slash" unicode="/" horiz-adv-x="442" 
d="M24 -45l335 990h60l-336 -990h-59z" />
    <glyph glyph-name="zero" unicode="0" horiz-adv-x="614" 
d="M314 861h-15q-43 0 -79 -25.5t-55 -67.5q-20 -42 -30 -95.5t-11.5 -91.5t-1.5 -102v-58q0 -64 1.5 -102t11.5 -91.5t30 -95.5q19 -42 55 -67.5t79 -25.5h15q43 0 79 25.5t55 67.5q20 42 30 95.5t12 92.5t2 101v58q0 62 -2 101t-12 92.5t-30 95.5q-19 42 -55 67.5
t-79 25.5zM314 918q56 0 103.5 -29t73.5 -78q36 -68 47 -146t11 -186v-58q0 -108 -11 -186t-47 -146q-26 -49 -73.5 -78t-103.5 -29h-15q-56 0 -103.5 29t-73.5 78q-36 68 -46.5 145.5t-10.5 186.5v58q0 71 2.5 117t16 107t38.5 108q26 49 73.5 78t103.5 29h15z" />
    <glyph glyph-name="one" unicode="1" horiz-adv-x="401" 
d="M202 0v799l-155 -99v65l212 135v-900h-57z" />
    <glyph glyph-name="two" unicode="2" 
d="M47 0v57q136 162 205 242q91 65 141.5 164t50.5 211v24q0 72 -45 117q-46 46 -118 46h-13q-72 0 -118 -46q-27 -27 -38 -64l-56 14q16 55 53 92q61 61 159 61h13q98 0 159 -61q61 -60 61 -159v-24q0 -128 -57.5 -242t-160.5 -190q-26 -31 -78 -92.5t-78 -92.5h374v-57
h-454z" />
    <glyph glyph-name="three" unicode="3" 
d="M108 137q17 -43 57.5 -70.5t90.5 -27.5h13q73 0 118 50q46 50 46 128v27q0 78 -46 128q-45 49 -118 49h-57v57h57q73 0 118 50q46 50 46 128v27q0 78 -46 128q-45 50 -118 50h-13q-73 0 -118 -50q-20 -21 -30 -46l-54 19q16 39 43 68q61 66 159 66h13q98 0 159 -66
q62 -65 62 -169v-27q0 -104 -62 -169q-19 -21 -47 -37q28 -16 47 -37q62 -65 62 -169v-27q0 -104 -62 -169q-61 -66 -159 -66h-13q-98 0 -159 66q-28 29 -43 67z" />
    <glyph glyph-name="four" unicode="4" horiz-adv-x="584" 
d="M433 242v-242h-57v242h-341l398 658v-601h116v-57h-116zM376 299v400l-242 -400h242z" />
    <glyph glyph-name="five" unicode="5" horiz-adv-x="566" 
d="M270 -18q-104 0 -169 77q-37 45 -53 103l55 15q12 -41 39 -76q49 -62 128 -62h15q78 0 127 62q50 61 50 158v33q0 97 -46 158q-46 62 -118 62h-13q-59 0 -105 -37t-59 -95h-57v520h427v-57h-370v-352q63 78 164 78h13q96 0 159 -78q62 -77 62 -199v-33q0 -124 -65 -200
q-65 -77 -169 -77h-15z" />
    <glyph glyph-name="six" unicode="6" horiz-adv-x="578" 
d="M110 460q31 40 78.5 63t99.5 23h14q102 0 169 -75q66 -75 66 -191v-32q0 -116 -66 -191q-67 -75 -169 -75h-14q-102 0 -169 75q-66 75 -66 191v414q0 112 66 184t169 72h14q103 0 169 -72q22 -25 34 -48l-51 -27q-9 16 -24 34q-50 56 -128 56h-14q-78 0 -128 -56
t-50 -143v-202zM288 39h14q77 0 128 59q50 60 50 150v32q0 90 -50 150q-51 59 -128 59h-14q-77 0 -128 -59q-50 -60 -50 -150v-32q0 -90 50 -150q51 -59 128 -59z" />
    <glyph glyph-name="seven" unicode="7" 
d="M47 843v57h454l-317 -900h-60l297 843h-374z" />
    <glyph glyph-name="eight" unicode="8" horiz-adv-x="590" 
d="M288 39h14q78 0 128 53t50 135v29q0 82 -50 135t-128 53h-14q-78 0 -128 -53t-50 -135v-29q0 -82 50 -135t128 -53zM288 -18q-103 0 -169 69t-66 176v29q0 107 66 176q27 28 62 45q-21 16 -34 30q-54 63 -54 161v26q0 98 54 161q55 63 141 63h14q86 0 141 -63
q54 -63 54 -161v-26q0 -98 -54 -161q-13 -14 -34 -30q35 -17 62 -45q66 -69 66 -176v-29q0 -107 -66 -176t-169 -69h-14zM302 501q62 0 100 47q38 46 38 120v26q0 74 -38 120q-38 47 -100 47h-14q-62 0 -100 -47q-38 -46 -38 -120v-26q0 -74 38 -120q38 -47 100 -47h14z" />
    <glyph glyph-name="nine" unicode="9" horiz-adv-x="578" 
d="M291 861h-15q-77 0 -128 -59q-50 -60 -50 -150v-32q0 -90 50 -150q51 -59 128 -59h15q76 0 127 59q50 60 50 150v32q0 90 -50 150q-51 59 -127 59zM468 440q-31 -40 -78 -63t-99 -23h-15q-102 0 -169 75q-66 75 -66 191v32q0 116 66 191q67 75 169 75h15q101 0 168 -75
q66 -75 66 -191v-414q0 -112 -66 -184t-168 -72h-15q-103 0 -169 72q-22 25 -34 48l50 29q11 -21 25 -36q50 -56 128 -56h15q77 0 127 56t50 143v202z" />
    <glyph glyph-name="colon" unicode=":" horiz-adv-x="246" 
d="M92 12q-12 12 -12 31t12 31t31 12t31 -12t12 -31t-12 -31t-31 -12t-31 12zM92 511q-12 12 -12 31t12 31t31 12t31 -12t12 -31t-12 -31t-31 -12t-31 12z" />
    <glyph glyph-name="semicolon" unicode=";" horiz-adv-x="283" 
d="M128 117h64l-140 -292h-47zM129 511q-12 12 -12 31t12 31t31 12t31.5 -12t12.5 -31t-12.5 -31t-31.5 -12t-31 12z" />
    <glyph glyph-name="less" unicode="&#x3c;" horiz-adv-x="578" 
d="M105 292l426 -232v-63l-484 264v63l484 264v-63z" />
    <glyph glyph-name="equal" unicode="=" horiz-adv-x="578" 
d="M47 381v57h484v-57h-484zM47 147v57h484v-57h-484z" />
    <glyph glyph-name="greater" unicode="&#x3e;" horiz-adv-x="578" 
d="M473 292l-426 233v63l484 -264v-63l-484 -264v63z" />
    <glyph glyph-name="question" unicode="?" horiz-adv-x="549" 
d="M243 221v257h35q65 0 107 50q42 49 42 128v27q0 79 -42 128q-42 50 -107 50h-13q-65 0 -107 -50q-16 -21 -27 -45l-54 18q14 39 40 68q57 66 148 66h13q91 0 148 -66q58 -65 58 -169v-27q0 -104 -58 -169q-49 -57 -126 -65v-201h-57zM240 12q-12 12 -12 31t12 31t31 12
t31.5 -12t12.5 -31t-12.5 -31t-31.5 -12t-31 12z" />
    <glyph glyph-name="at" unicode="@" horiz-adv-x="838" 
d="M683 725q97 -112 97 -289v-53q0 -177 -97 -289q-46 -53 -112 -82.5t-139 -29.5h-24q-73 0 -139 29.5t-112 82.5q-97 112 -97 289v53q0 177 97 289q46 53 112 82.5t139 29.5h24q73 0 139 -29.5t112 -82.5zM641 131q8 11 15.5 22t15.5 22h-144v38v26q-43 -38 -104 -38h-9
q-62 0 -102 36q-40 35 -40 91v13q0 56 40 91q39 35 102 35h9q63 0 104 -37v43q0 47 -30 77q-29 29 -74 29h-9q-26 0 -49.5 -12.5t-37.5 -33.5l-33 21q2 5 7 10t11 13q40 40 102 40h9q63 0 102 -40q40 -40 40 -104v-260h125q32 76 32 170v53q0 153 -82 251q-38 46 -92 72
t-117 26h-24q-63 0 -117 -26t-92 -72q-82 -98 -82 -251v-53q0 -154 82 -252q38 -46 92 -71.5t117 -25.5h24q63 0 117 25.5t92 71.5zM528 341q0 38 -30 64q-29 24 -74 24h-9q-46 0 -74 -24q-30 -26 -30 -64v-13q0 -39 30 -64q28 -24 74 -24h9q45 0 74 24q30 25 30 64v13z" />
    <glyph glyph-name="A" unicode="A" horiz-adv-x="655" 
d="M12 0l315 900l316 -900h-60l-72 206h-366l-72 -206h-61zM491 263l-163 464l-163 -464h326z" />
    <glyph glyph-name="B" unicode="B" horiz-adv-x="619" 
d="M83 0v900h249q90 0 148 -69t58 -178v-28q0 -109 -58 -178q-17 -20 -37 -34q33 -14 58 -36q65 -56 65 -148v-23q0 -92 -65 -148q-65 -58 -169 -58h-249zM140 843v-408h192q65 0 107 53q42 55 42 137v28q0 82 -42 137q-42 53 -107 53h-192zM140 378v-321h192q79 0 128 42
q49 41 49 107v23q0 66 -49 107q-49 42 -128 42h-192z" />
    <glyph glyph-name="C" unicode="C" horiz-adv-x="796" 
d="M742 672l-54 -19q-20 55 -54 101q-38 50 -92.5 78.5t-116.5 28.5h-24q-62 0 -116.5 -28.5t-92.5 -78.5q-82 -108 -82 -275v-58q0 -167 82 -275q38 -50 92.5 -78.5t116.5 -28.5h24q62 0 116.5 28.5t92.5 78.5q34 46 54 101l54 -19q-24 -72 -66 -123q-46 -58 -112 -90.5
t-139 -32.5h-24q-73 0 -139 32.5t-112 90.5q-97 123 -97 316v58q0 193 97 316q46 58 112 90.5t139 32.5h24q73 0 139 -32.5t112 -90.5q42 -51 66 -123z" />
    <glyph glyph-name="D" unicode="D" horiz-adv-x="743" 
d="M83 0v900h240q75 0 143.5 -30.5t116.5 -87.5q101 -118 101 -304v-56q0 -186 -101 -304q-48 -57 -116.5 -87.5t-143.5 -30.5h-240zM140 57h183q134 0 219 102t85 263v56q0 161 -85 263t-219 102h-183v-786z" />
    <glyph glyph-name="E" unicode="E" horiz-adv-x="549" 
d="M83 0v900h424v-57h-367v-428h339v-57h-339v-301h367v-57h-424z" />
    <glyph glyph-name="F" unicode="F" horiz-adv-x="531" 
d="M83 0v900h424v-57h-367v-428h339v-57h-339v-358h-57z" />
    <glyph glyph-name="G" unicode="G" horiz-adv-x="844" 
d="M773 0h-57v135q-15 -24 -40 -51q-98 -102 -251 -102h-24q-73 0 -139 32.5t-112 90.5q-97 123 -97 316v58q0 193 97 316q46 58 112 90.5t139 32.5h24q73 0 139 -32.5t112 -90.5q32 -40 58 -102l-53 -22q-18 43 -47 83q-38 50 -92.5 78.5t-116.5 28.5h-24
q-62 0 -116.5 -28.5t-92.5 -78.5q-82 -108 -82 -275v-58q0 -167 82 -275q38 -50 92.5 -78.5t116.5 -28.5h24q128 0 209 86q82 86 82 220v13h-303v57h360v-415z" />
    <glyph glyph-name="H" unicode="H" horiz-adv-x="708" 
d="M83 0v900h57v-485h428v485h57v-900h-57v358h-428v-358h-57z" />
    <glyph glyph-name="I" unicode="I" horiz-adv-x="246" 
d="M94 0v900h57v-900h-57z" />
    <glyph glyph-name="J" unicode="J" horiz-adv-x="519" 
d="M442 900v-685q0 -103 -61 -168q-62 -65 -159 -65h-13q-97 0 -159 65q-27 28 -42 65l53 23q11 -26 30 -47q45 -49 118 -49h13q73 0 118 49q45 48 45 127v685h57z" />
    <glyph glyph-name="K" unicode="K" horiz-adv-x="625" 
d="M83 900h57v-513l411 513h74l-286 -358l286 -542h-65l-261 492l-159 -198v-294h-57v900z" />
    <glyph glyph-name="L" unicode="L" horiz-adv-x="543" 
d="M83 0v900h57v-843h367v-57h-424z" />
    <glyph glyph-name="M" unicode="M" horiz-adv-x="914" 
d="M83 0v900l374 -767l375 767v-900h-57v650l-318 -650l-317 650v-650h-57z" />
    <glyph glyph-name="N" unicode="N" horiz-adv-x="737" 
d="M83 0v900l515 -719v719h57v-900l-515 719v-719h-57z" />
    <glyph glyph-name="O" unicode="O" horiz-adv-x="826" 
d="M425 861h-24q-62 0 -116.5 -28.5t-92.5 -78.5q-82 -108 -82 -275v-58q0 -167 82 -275q38 -50 92.5 -78.5t116.5 -28.5h24q62 0 116.5 28.5t92.5 78.5q82 108 82 275v58q0 167 -82 275q-38 50 -92.5 78.5t-116.5 28.5zM425 918q73 0 139 -32.5t112 -90.5q97 -123 97 -316
v-58q0 -193 -97 -316q-46 -58 -112 -90.5t-139 -32.5h-24q-73 0 -139 32.5t-112 90.5q-97 123 -97 316v58q0 193 97 316q46 58 112 90.5t139 32.5h24z" />
    <glyph glyph-name="P" unicode="P" horiz-adv-x="602" 
d="M83 0v900h230q111 0 182 -80t71 -207v-35q0 -127 -71 -207t-182 -80h-173v-291h-57zM140 843v-495h173q86 0 141 64q55 65 55 166v35q0 101 -55 166q-55 64 -141 64h-173z" />
    <glyph glyph-name="Q" unicode="Q" horiz-adv-x="826" 
d="M425 861h-24q-62 0 -116.5 -28.5t-92.5 -78.5q-82 -108 -82 -275v-58q0 -167 82 -275q38 -50 92.5 -78.5t116.5 -28.5h24q109 0 188 82l-106 132h69l71 -89q69 106 69 257v58q0 167 -82 275q-38 50 -92.5 78.5t-116.5 28.5zM425 918q73 0 139 -32.5t112 -90.5
q97 -123 97 -316v-58q0 -182 -88 -304l94 -117h-69l-60 75q-95 -93 -225 -93h-24q-73 0 -139 32.5t-112 90.5q-97 123 -97 316v58q0 193 97 316q46 58 112 90.5t139 32.5h24z" />
    <glyph glyph-name="R" unicode="R" horiz-adv-x="596" 
d="M83 0v900h230q111 0 182 -77t71 -197v-32q0 -121 -71 -198q-30 -33 -76 -54l171 -342h-65l-160 325q-28 -5 -52 -5h-173v-320h-57zM140 843v-466h173q87 0 141 60q55 61 55 157v32q0 95 -55 156t-141 61h-173z" />
    <glyph glyph-name="S" unicode="S" horiz-adv-x="614" 
d="M296 -18q-117 0 -183 65q-39 38 -55 97l55 16q13 -43 42 -72q50 -49 141 -49h16q91 0 141 49t50 137v26q0 57 -29 101t-79 54l-186 37q-67 13 -104.5 74t-37.5 139v27q0 111 61 173t169 62h14q101 0 165 -66q40 -41 55 -96l-55 -16q-13 41 -41 71q-48 50 -124 50h-14
q-81 0 -127 -47t-46 -131v-27q0 -57 30 -101.5t81 -54.5l186 -37q66 -13 102.5 -73.5t36.5 -138.5v-26q0 -113 -66 -178t-182 -65h-16z" />
    <glyph glyph-name="T" unicode="T" horiz-adv-x="543" 
d="M0 843v57h543v-57h-243v-843h-57v843h-243z" />
    <glyph glyph-name="U" unicode="U" horiz-adv-x="701" 
d="M622 900v-645q0 -120 -74 -197q-73 -76 -189 -76h-17q-116 0 -189 76q-74 77 -74 197v645h57v-645q0 -94 58 -155t148 -61h17q90 0 148 61t58 155v645h57z" />
    <glyph glyph-name="V" unicode="V" horiz-adv-x="621" 
d="M9 900h61l239 -717l240 717h62l-301 -900z" />
    <glyph glyph-name="W" unicode="W" horiz-adv-x="920" 
d="M12 900h60l233 -714l124 379l-109 335h60l80 -243l79 243h61l-110 -336l124 -378l233 714h62l-295 -900l-154 471l-154 -471z" />
    <glyph glyph-name="X" unicode="X" horiz-adv-x="584" 
d="M20 900h64l207 -377l206 377h67l-239 -439l253 -461h-63l-222 403l-220 -403h-67l253 465z" />
    <glyph glyph-name="Y" unicode="Y" horiz-adv-x="614" 
d="M6 900h62l238 -525l237 525h65l-273 -602v-298h-57v298z" />
    <glyph glyph-name="Z" unicode="Z" horiz-adv-x="602" 
d="M30 843v57h542l-447 -843h447v-57h-542l447 843h-447z" />
    <glyph glyph-name="bracketleft" unicode="[" horiz-adv-x="330" 
d="M106 -300v1245h189v-57h-132v-1131h132v-57h-189z" />
    <glyph glyph-name="backslash" unicode="\" horiz-adv-x="442" 
d="M358 -45l-334 990h60l335 -990h-61z" />
    <glyph glyph-name="bracketright" unicode="]" horiz-adv-x="330" 
d="M35 945h189v-1245h-189v57h132v1131h-132v57z" />
    <glyph glyph-name="asciicircum" unicode="^" horiz-adv-x="637" 
d="M318 830l-211 -470h-63l243 540h63l243 -540h-63z" />
    <glyph glyph-name="underscore" unicode="_" horiz-adv-x="578" 
d="M47 -86v58h484v-58h-484z" />
    <glyph glyph-name="quoteleft" unicode="&#x2018;" horiz-adv-x="301" 
d="M175 900h44l-91 -293h-59z" />
    <glyph glyph-name="a" unicode="a" horiz-adv-x="555" 
d="M272 379q94 0 155 -55v63q0 71 -44 115q-43 44 -111 44h-13q-40 0 -75 -18.5t-55 -49.5l-50 30q8 13 28 35q59 60 152 60h13q93 0 152 -60q60 -61 60 -156v-387h-57v38q-62 -56 -155 -56h-13q-92 0 -152 53q-60 52 -60 136v20q0 84 60 136q59 52 152 52h13zM272 322h-13
q-68 0 -111 -36q-44 -38 -44 -95v-20q0 -57 44 -95q44 -37 111 -37h13q67 0 111 37q44 38 44 95v20q0 57 -44 95q-43 36 -111 36z" />
    <glyph glyph-name="b" unicode="b" horiz-adv-x="608" 
d="M326 546h-15q-79 0 -128 -66q-49 -65 -49 -170v-35q0 -105 49 -170q49 -66 128 -66h15q79 0 128 66q49 65 49 170v35q0 105 -49 170q-49 66 -128 66zM134 510q30 43 77.5 68t99.5 25h15q103 0 169 -82q65 -82 65 -211v-35q0 -129 -65 -211q-66 -82 -169 -82h-15
q-52 0 -99.5 25t-77.5 68v-75h-57v950h57v-440z" />
    <glyph glyph-name="c" unicode="c" horiz-adv-x="564" 
d="M287 -18q-105 0 -173 82q-67 82 -67 211v35q0 129 67 211q68 82 173 82h16q107 0 173 -82q31 -38 49 -92l-54 -17q-11 36 -36 68q-52 66 -132 66h-16q-80 0 -132 -66q-51 -66 -51 -170v-35q0 -104 51 -170q52 -66 132 -66h16q80 0 132 66q25 32 36 68l54 -17
q-18 -54 -49 -92q-66 -82 -173 -82h-16z" />
    <glyph glyph-name="d" unicode="d" horiz-adv-x="608" 
d="M296 603q53 0 100 -25.5t78 -68.5v441h57v-950h-57v76q-31 -43 -78 -68.5t-100 -25.5h-14q-103 0 -169 82q-66 83 -66 211v35q0 128 66 211q66 82 169 82h14zM296 546h-14q-78 0 -128 -66q-50 -67 -50 -170v-35q0 -103 50 -170q50 -66 128 -66h14q79 0 128 66
q50 67 50 170v35q0 103 -50 170q-49 66 -128 66z" />
    <glyph glyph-name="e" unicode="e" horiz-adv-x="584" 
d="M303 39q50 0 92.5 29.5t62.5 73.5l51 -25q-14 -30 -33 -53q-66 -82 -173 -82h-16q-105 0 -173 82q-67 82 -67 211v35q0 129 67 211q68 82 173 82h16q107 0 173 -82q64 -77 67 -200v-57h-439q3 -98 51 -159q52 -66 132 -66h16zM486 321q-3 98 -51 159q-52 66 -132 66h-16
q-80 0 -132 -66q-48 -61 -51 -159h382z" />
    <glyph glyph-name="f" unicode="f" horiz-adv-x="348" 
d="M254 913q-25 0 -39 -23.5t-14 -52.5v-250h110v-57h-110v-528h-57v528h-110v57h110v250q0 58 30 96q31 37 80 37h57v-57h-57v0z" />
    <glyph glyph-name="g" unicode="g" horiz-adv-x="602" 
d="M296 603q52 0 100 -25t78 -67v74h57v-669q0 -102 -66 -168t-169 -66h-14q-103 0 -169 66q-45 45 -59 109l56 13q11 -48 44 -81q50 -50 128 -50h14q78 0 128 50t50 127v176q-30 -42 -78 -67t-100 -25h-14q-102 0 -169 80q-66 80 -66 204v35q0 124 66 204q67 80 169 80h14z
M296 546h-14q-78 0 -128 -64t-50 -163v-35q0 -99 50 -163t128 -64h14q78 0 128 64t50 163v35q0 99 -50 163t-128 64z" />
    <glyph glyph-name="h" unicode="h" horiz-adv-x="537" 
d="M134 540q62 63 162 63h11q73 0 119 -59t46 -150v-394h-57v394q0 59 -28.5 105.5t-79.5 46.5h-11q-71 0 -117 -43q-45 -42 -45 -109v-394h-57v950h57v-410z" />
    <glyph glyph-name="i" unicode="i" horiz-adv-x="224" 
d="M84 0v585h57v-585h-57zM80 770q-13 13 -13 32t13 32t32 13t32 -13t13 -32t-13 -31.5t-32 -12.5t-32 12z" />
    <glyph glyph-name="j" unicode="j" horiz-adv-x="248" 
d="M-54 -216q26 -45 74 -45h7q43 0 68 36.5t25 84.5v725h57v-725q0 -78 -42 -128t-108 -50h-7q-39 0 -72 20.5t-52 53.5zM103 770q-13 13 -13 32t13 32t32 13t32 -13t13 -32t-13 -31.5t-32 -12.5t-32 12z" />
    <glyph glyph-name="k" unicode="k" horiz-adv-x="513" 
d="M77 950h57v-689l291 324h76l-216 -241l216 -344h-71l-187 297l-109 -122v-175h-57v950z" />
    <glyph glyph-name="l" unicode="l" horiz-adv-x="199" 
d="M71 0v950h57v-950h-57z" />
    <glyph glyph-name="m" unicode="m" horiz-adv-x="855" 
d="M298 603q44 0 80.5 -26t56.5 -67q14 22 28 34q60 59 155 59h11q70 0 116 -59q46 -60 46 -150v-394h-57v394q0 59 -27.5 105.5t-77.5 46.5h-11q-68 0 -114 -43q-45 -42 -45 -109v-394h-57v394q0 59 -27 105.5t-77 46.5h-11q-69 0 -115 -43q-44 -41 -44 -109v-394h-57v585
h57v-44q62 62 159 62h11z" />
    <glyph glyph-name="n" unicode="n" 
d="M128 536q67 67 180 67h12q78 0 127 -59t49 -150v-394h-57v394q0 66 -33 109t-86 43h-12q-78 0 -130 -43q-50 -42 -50 -109v-394h-57v585h57v-49z" />
    <glyph glyph-name="o" unicode="o" horiz-adv-x="590" 
d="M303 546h-16q-80 0 -132 -66q-51 -66 -51 -170v-35q0 -104 51 -170q52 -66 132 -66h16q80 0 132 66q51 66 51 170v35q0 104 -51 170q-52 66 -132 66zM303 603q107 0 173 -82q67 -82 67 -211v-35q0 -129 -67 -211q-66 -82 -173 -82h-16q-105 0 -173 82q-67 82 -67 211v35
q0 129 67 211q68 82 173 82h16z" />
    <glyph glyph-name="p" unicode="p" horiz-adv-x="602" 
d="M320 546h-15q-79 0 -128 -66q-49 -65 -49 -170v-35q0 -105 49 -170q49 -66 128 -66h15q79 0 128 66q50 67 50 170v35q0 103 -50 170q-49 66 -128 66zM128 510q30 43 77.5 68t99.5 25h15q103 0 169 -82q66 -83 66 -211v-35q0 -128 -66 -211q-66 -82 -169 -82h-15
q-52 0 -99.5 25t-77.5 68v-375h-57v885h57v-75z" />
    <glyph glyph-name="q" unicode="q" horiz-adv-x="602" 
d="M296 603q53 0 100 -25.5t78 -68.5v76h57v-885h-57v376q-31 -43 -78 -68.5t-100 -25.5h-14q-103 0 -169 82q-66 83 -66 211v35q0 128 66 211q66 82 169 82h14zM296 546h-14q-78 0 -128 -66q-50 -67 -50 -170v-35q0 -103 50 -170q50 -66 128 -66h14q79 0 128 66
q50 67 50 170v35q0 103 -50 170q-49 66 -128 66z" />
    <glyph glyph-name="r" unicode="r" horiz-adv-x="348" 
d="M381 573l-31 -48q-32 21 -70 21h-12q-62 0 -101 -51q-39 -50 -39 -130v-365h-57v585h57v-47q55 65 140 65h12q54 0 101 -30z" />
    <glyph glyph-name="s" unicode="s" horiz-adv-x="472" 
d="M230 -18q-91 0 -143 44q-33 29 -46 75l56 15q10 -31 32 -48q37 -29 101 -29h12q64 0 101 29t37 80v16q0 32 -20.5 58t-51.5 33l-138 21q-51 13 -83 55t-32 95v15q0 76 47 119t129 43h10q77 0 126 -45q33 -30 44 -74l-55 -14q-10 35 -42 55.5t-73 20.5h-10q-55 0 -87 -28
t-32 -77v-15q0 -34 22 -60.5t55 -32.5l137 -21q50 -15 80.5 -56t30.5 -92v-16q0 -77 -52 -122q-52 -44 -143 -44h-12z" />
    <glyph glyph-name="t" unicode="t" horiz-adv-x="319" 
d="M6 528v57h125v365h57v-365h125v-57h-125v-528h-57v528h-125z" />
    <glyph glyph-name="u" unicode="u" 
d="M433 42q-57 -60 -149 -60h-13q-89 0 -148 59q-58 59 -58 150v394h57v-394q0 -65 42 -109q42 -43 107 -43h13q65 0 107 43q42 44 42 109v394h57v-585h-57v42z" />
    <glyph glyph-name="v" unicode="v" horiz-adv-x="496" 
d="M6 585h62l178 -432l179 432h65l-242 -585z" />
    <glyph glyph-name="w" unicode="w" horiz-adv-x="761" 
d="M6 585h62l182 -436l99 236l-84 200h62l53 -126l53 126h63l-84 -202l98 -234l182 436h63l-245 -585l-130 309l-129 -309z" />
    <glyph glyph-name="x" unicode="x" horiz-adv-x="478" 
d="M26 585h65l147 -229l145 229h69l-180 -283l194 -302h-65l-161 251l-159 -251h-69l193 305z" />
    <glyph glyph-name="y" unicode="y" horiz-adv-x="496" 
d="M6 585h61l179 -493l180 493h64l-323 -885h-64l113 309z" />
    <glyph glyph-name="z" unicode="z" horiz-adv-x="437" 
d="M30 528v57h377l-280 -528h280v-57h-377l280 528h-280z" />
    <glyph glyph-name="bar" unicode="|" horiz-adv-x="271" 
d="M107 -45v990h57v-990h-57z" />
    <glyph glyph-name="Scaron" unicode="&#x160;" horiz-adv-x="614" 
d="M296 -18q-117 0 -183 65q-39 38 -55 97l55 16q13 -43 42 -72q50 -49 141 -49h16q91 0 141 49t50 137v26q0 57 -29 101t-79 54l-186 37q-67 13 -104.5 74t-37.5 139v27q0 111 61 173t169 62h14q101 0 165 -66q40 -41 55 -96l-55 -16q-13 41 -41 71q-48 50 -124 50h-14
q-81 0 -127 -47t-46 -131v-27q0 -57 30 -101.5t81 -54.5l186 -37q66 -13 102.5 -73.5t36.5 -138.5v-26q0 -113 -66 -178t-182 -65h-16zM403 1147h51l-115 -180h-70l-116 180h52l99 -133z" />
    <glyph glyph-name="Ydieresis" unicode="&#x178;" horiz-adv-x="614" 
d="M6 900h62l238 -525l237 525h65l-273 -602v-298h-57v298zM169 1026q-13 13 -13 32t13 31.5t32 12.5t31.5 -12.5t12.5 -31.5t-12.5 -32t-31.5 -13t-32 13zM381 1026q-13 13 -13 32t13 31.5t32 12.5t32 -12.5t13 -31.5t-13 -32t-32 -13t-32 13z" />
    <glyph glyph-name="Zcaron" unicode="&#x17d;" horiz-adv-x="602" 
d="M30 843v57h542l-447 -843h447v-57h-542l447 843h-447zM400 1147h51l-115 -180h-70l-116 180h52l99 -133z" />
    <glyph glyph-name="racute" unicode="&#x155;" horiz-adv-x="348" 
d="M381 573l-31 -48q-32 21 -70 21h-12q-62 0 -101 -51q-39 -50 -39 -130v-365h-57v585h57v-47q55 65 140 65h12q54 0 101 -30zM292 892h68l-124 -180h-50z" />
    <glyph glyph-name="scaron" unicode="&#x161;" horiz-adv-x="472" 
d="M230 -18q-91 0 -143 44q-33 29 -46 75l56 15q10 -31 32 -48q37 -29 101 -29h12q64 0 101 29t37 80v16q0 32 -20.5 58t-51.5 33l-138 21q-51 13 -83 55t-32 95v15q0 76 47 119t129 43h10q77 0 126 -45q33 -30 44 -74l-55 -14q-10 35 -42 55.5t-73 20.5h-10q-55 0 -87 -28
t-32 -77v-15q0 -34 22 -60.5t55 -32.5l137 -21q50 -15 80.5 -56t30.5 -92v-16q0 -77 -52 -122q-52 -44 -143 -44h-12zM335 892h52l-116 -180h-70l-116 180h52l99 -133z" />
    <glyph glyph-name="ydieresis" unicode="&#xff;" horiz-adv-x="496" 
d="M6 585h61l179 -493l180 493h64l-323 -885h-64l113 309zM110 770q-13 13 -13 32t13 32t32 13t31.5 -13t12.5 -32t-12.5 -31.5t-31.5 -12.5t-32 12zM322 770q-13 13 -13 32t13 32t32 13t32 -13t13 -32t-13 -31.5t-32 -12.5t-32 12z" />
    <glyph glyph-name="zcaron" unicode="&#x17e;" horiz-adv-x="437" 
d="M30 528v57h377l-280 -528h280v-57h-377l280 528h-280zM318 892h51l-116 -180h-69l-116 180h51l99 -134z" />
    <glyph glyph-name="Agrave" unicode="&#xc0;" horiz-adv-x="655" 
d="M12 0l315 900l316 -900h-60l-72 206h-366l-72 -206h-61zM196 1147h68l106 -180h-50zM491 263l-163 464l-163 -464h326z" />
    <glyph glyph-name="Aacute" unicode="&#xc1;" horiz-adv-x="655" 
d="M12 0l315 900l316 -900h-60l-72 206h-366l-72 -206h-61zM391 1147h68l-124 -180h-50zM491 263l-163 464l-163 -464h326z" />
    <glyph glyph-name="Acircumflex" unicode="&#xc2;" horiz-adv-x="655" 
d="M12 0l315 900l316 -900h-60l-72 206h-366l-72 -206h-61zM491 263l-163 464l-163 -464h326zM328 1101l-100 -134h-51l116 180h69l116 -180h-51z" />
    <glyph glyph-name="Atilde" unicode="&#xc3;" horiz-adv-x="655" 
d="M12 0l315 900l316 -900h-60l-72 206h-366l-72 -206h-61zM493 1111q0 -51 -31.5 -88.5t-80.5 -37.5q-22 0 -53.5 31t-53.5 31q-29 0 -47.5 -22t-18.5 -53h-46q0 55 32 91q30 35 80 35q22 0 53.5 -31t53.5 -31q29 0 47.5 22t18.5 53h46zM491 263l-163 464l-163 -464h326z
" />
    <glyph glyph-name="Adieresis" unicode="&#xc4;" horiz-adv-x="655" 
d="M12 0l315 900l316 -900h-60l-72 206h-366l-72 -206h-61zM189 1026q-12 13 -12 32t12.5 31.5t31.5 12.5t32 -12.5t13 -31.5t-13 -32t-32 -13t-32 13zM402 1026q-13 13 -13 32t13 31.5t32 12.5t31.5 -12.5t12.5 -31.5t-12.5 -32t-31.5 -13t-32 13zM491 263l-163 464
l-163 -464h326z" />
    <glyph glyph-name="Aring" unicode="&#xc5;" horiz-adv-x="655" 
d="M12 0l315 900l316 -900h-60l-72 206h-366l-72 -206h-61zM491 263l-163 464l-163 -464h326zM330 1166q42 0 69 -29q27 -28 27 -75v-9q0 -47 -27 -75q-28 -30 -69 -30h-5q-41 0 -69 30q-27 28 -27 75v9q0 47 27 75q27 29 69 29h5zM330 1128h-5q-26 0 -42 -19.5t-16 -46.5
v-9q0 -27 16 -47t42 -20h5q25 0 41.5 20t16.5 47v9q0 27 -16 46.5t-42 19.5z" />
    <glyph glyph-name="AE" unicode="&#xc6;" horiz-adv-x="950" 
d="M12 0l438 900h459v-57h-373v-428h341v-57h-341v-301h373v-57h-430v262h-276l-128 -262h-63zM231 319h248v509z" />
    <glyph glyph-name="Ccedilla" unicode="&#xc7;" horiz-adv-x="796" 
d="M742 672l-54 -19q-20 55 -54 101q-38 50 -92.5 78.5t-116.5 28.5h-24q-62 0 -116.5 -28.5t-92.5 -78.5q-82 -108 -82 -275v-58q0 -167 82 -275q38 -50 92.5 -78.5t116.5 -28.5h24q62 0 116.5 28.5t92.5 78.5q34 46 54 101l54 -19q-24 -72 -66 -123q-46 -58 -111 -90
t-138 -33q-2 -8 -5 -24.5t-4 -24.5q49 -2 81 -34q32 -33 32 -86v-11q0 -53 -32 -86q-33 -33 -83 -33h-6q-36 0 -65 19t-41 50l43 17q18 -41 63 -41h6q30 0 50 21.5t20 52.5v11q0 31 -20 52.5t-50 21.5h-48l17 95q-143 8 -235 123q-97 123 -97 316v58q0 193 97 316
q46 58 112 90.5t139 32.5h24q73 0 139 -32.5t112 -90.5q42 -51 66 -123z" />
    <glyph glyph-name="Egrave" unicode="&#xc8;" horiz-adv-x="549" 
d="M83 0v900h424v-57h-367v-428h339v-57h-339v-301h367v-57h-424zM164 1147h67l107 -180h-50z" />
    <glyph glyph-name="Eacute" unicode="&#xc9;" horiz-adv-x="549" 
d="M83 0v900h424v-57h-367v-428h339v-57h-339v-301h367v-57h-424zM359 1147h67l-124 -180h-50z" />
    <glyph glyph-name="Ecircumflex" unicode="&#xca;" horiz-adv-x="549" 
d="M83 0v900h424v-57h-367v-428h339v-57h-339v-301h367v-57h-424zM295 1100l-99 -133h-52l116 180h70l116 -180h-52z" />
    <glyph glyph-name="Edieresis" unicode="&#xcb;" horiz-adv-x="549" 
d="M83 0v900h424v-57h-367v-428h339v-57h-339v-301h367v-57h-424zM157 1026q-13 13 -13 32t13 31.5t32 12.5t31.5 -12.5t12.5 -31.5t-12.5 -32t-31.5 -13t-32 13zM369 1026q-12 13 -12 32t12.5 31.5t31.5 12.5t32 -12.5t13 -31.5t-13 -32t-32 -13t-32 13z" />
    <glyph glyph-name="Igrave" unicode="&#xcc;" horiz-adv-x="246" 
d="M94 0v900h57v-900h-57zM-8 1147h67l107 -180h-50z" />
    <glyph glyph-name="Iacute" unicode="&#xcd;" horiz-adv-x="246" 
d="M94 0v900h57v-900h-57zM186 1147h68l-124 -180h-50z" />
    <glyph glyph-name="Icircumflex" unicode="&#xce;" horiz-adv-x="246" 
d="M94 0v900h57v-900h-57zM123 1100l-99 -133h-52l116 180h70l115 -180h-51z" />
    <glyph glyph-name="Idieresis" unicode="&#xcf;" horiz-adv-x="246" 
d="M94 0v900h57v-900h-57zM-15 1026q-13 13 -13 32t13 31.5t32 12.5t31.5 -12.5t12.5 -31.5t-12.5 -32t-31.5 -13t-32 13zM197 1026q-13 13 -13 32t13 31.5t32 12.5t32 -12.5t13 -31.5t-13 -32t-32 -13t-32 13z" />
    <glyph glyph-name="Ntilde" unicode="&#xd1;" horiz-adv-x="737" 
d="M83 0v900l515 -719v719h57v-900l-515 719v-719h-57zM534 1111q0 -51 -31.5 -88.5t-80.5 -37.5q-22 0 -53 31t-53 31q-29 0 -48 -22t-19 -53h-45q0 56 31 91q30 35 81 35q22 0 53 -31t53 -31q29 0 47.5 22t18.5 53h46z" />
    <glyph glyph-name="Ograve" unicode="&#xd2;" horiz-adv-x="826" 
d="M282 1147h67l107 -180h-50zM425 861h-24q-62 0 -116.5 -28.5t-92.5 -78.5q-82 -108 -82 -275v-58q0 -167 82 -275q38 -50 92.5 -78.5t116.5 -28.5h24q62 0 116.5 28.5t92.5 78.5q82 108 82 275v58q0 167 -82 275q-38 50 -92.5 78.5t-116.5 28.5zM425 918q73 0 139 -32.5
t112 -90.5q97 -123 97 -316v-58q0 -193 -97 -316q-46 -58 -112 -90.5t-139 -32.5h-24q-73 0 -139 32.5t-112 90.5q-97 123 -97 316v58q0 193 97 316q46 58 112 90.5t139 32.5h24z" />
    <glyph glyph-name="Oacute" unicode="&#xd3;" horiz-adv-x="826" 
d="M477 1147h67l-124 -180h-50zM425 861h-24q-62 0 -116.5 -28.5t-92.5 -78.5q-82 -108 -82 -275v-58q0 -167 82 -275q38 -50 92.5 -78.5t116.5 -28.5h24q62 0 116.5 28.5t92.5 78.5q82 108 82 275v58q0 167 -82 275q-38 50 -92.5 78.5t-116.5 28.5zM425 918q73 0 139 -32.5
t112 -90.5q97 -123 97 -316v-58q0 -193 -97 -316q-46 -58 -112 -90.5t-139 -32.5h-24q-73 0 -139 32.5t-112 90.5q-97 123 -97 316v58q0 193 97 316q46 58 112 90.5t139 32.5h24z" />
    <glyph glyph-name="Ocircumflex" unicode="&#xd4;" horiz-adv-x="826" 
d="M425 861h-24q-62 0 -116.5 -28.5t-92.5 -78.5q-82 -108 -82 -275v-58q0 -167 82 -275q38 -50 92.5 -78.5t116.5 -28.5h24q62 0 116.5 28.5t92.5 78.5q82 108 82 275v58q0 167 -82 275q-38 50 -92.5 78.5t-116.5 28.5zM425 918q73 0 139 -32.5t112 -90.5q97 -123 97 -316
v-58q0 -193 -97 -316q-46 -58 -112 -90.5t-139 -32.5h-24q-73 0 -139 32.5t-112 90.5q-97 123 -97 316v58q0 193 97 316q46 58 112 90.5t139 32.5h24zM413 1100l-99 -133h-52l116 180h70l116 -180h-52z" />
    <glyph glyph-name="Otilde" unicode="&#xd5;" horiz-adv-x="826" 
d="M360 1047q-29 0 -47.5 -22t-18.5 -53h-46q0 56 31 91q30 35 81 35q22 0 53 -31t53 -31q29 0 47.5 22t18.5 53h46q0 -55 -31 -90q-31 -36 -81 -36q-22 0 -53 31t-53 31zM425 861h-24q-62 0 -116.5 -28.5t-92.5 -78.5q-82 -108 -82 -275v-58q0 -167 82 -275
q38 -50 92.5 -78.5t116.5 -28.5h24q62 0 116.5 28.5t92.5 78.5q82 108 82 275v58q0 167 -82 275q-38 50 -92.5 78.5t-116.5 28.5zM425 918q73 0 139 -32.5t112 -90.5q97 -123 97 -316v-58q0 -193 -97 -316q-46 -58 -112 -90.5t-139 -32.5h-24q-73 0 -139 32.5t-112 90.5
q-97 123 -97 316v58q0 193 97 316q46 58 112 90.5t139 32.5h24z" />
    <glyph glyph-name="Odieresis" unicode="&#xd6;" horiz-adv-x="826" 
d="M275 1026q-13 13 -13 32t13 31.5t32 12.5t31.5 -12.5t12.5 -31.5t-12.5 -32t-31.5 -13t-32 13zM487 1026q-12 13 -12 32t12.5 31.5t31.5 12.5t32 -12.5t13 -31.5t-13 -32t-32 -13t-32 13zM425 861h-24q-62 0 -116.5 -28.5t-92.5 -78.5q-82 -108 -82 -275v-58
q0 -167 82 -275q38 -50 92.5 -78.5t116.5 -28.5h24q62 0 116.5 28.5t92.5 78.5q82 108 82 275v58q0 167 -82 275q-38 50 -92.5 78.5t-116.5 28.5zM425 918q73 0 139 -32.5t112 -90.5q97 -123 97 -316v-58q0 -193 -97 -316q-46 -58 -112 -90.5t-139 -32.5h-24
q-73 0 -139 32.5t-112 90.5q-97 123 -97 316v58q0 193 97 316q46 58 112 90.5t139 32.5h24z" />
    <glyph glyph-name="OE" unicode="&#x152;" horiz-adv-x="991" 
d="M372 861h-20q-52 0 -98 -29.5t-76 -77.5q-68 -106 -68 -275v-58q0 -169 68 -275q30 -48 76 -77.5t98 -29.5h20q52 0 98.5 29.5t76.5 77.5q68 106 68 275v58q0 169 -68 275q-30 48 -76.5 77.5t-98.5 29.5zM615 150q-36 -72 -101 -120t-142 -48h-20q-64 0 -120 33t-95 90
q-84 123 -84 316v58q0 193 84 316q39 57 95 90t120 33h20q77 0 142 -48t101 -120v150h335v-57h-278v-428h249v-57h-249v-301h278v-57h-335v150z" />
    <glyph glyph-name="Ugrave" unicode="&#xd9;" horiz-adv-x="701" 
d="M622 900v-645q0 -120 -74 -197q-73 -76 -189 -76h-17q-116 0 -189 76q-74 77 -74 197v645h57v-645q0 -94 58 -155t148 -61h17q90 0 148 61t58 155v645h57zM219 1147h68l106 -180h-50z" />
    <glyph glyph-name="Uacute" unicode="&#xda;" horiz-adv-x="701" 
d="M622 900v-645q0 -120 -74 -197q-73 -76 -189 -76h-17q-116 0 -189 76q-74 77 -74 197v645h57v-645q0 -94 58 -155t148 -61h17q90 0 148 61t58 155v645h57zM414 1147h68l-124 -180h-50z" />
    <glyph glyph-name="Ucircumflex" unicode="&#xdb;" horiz-adv-x="701" 
d="M622 900v-645q0 -120 -74 -197q-73 -76 -189 -76h-17q-116 0 -189 76q-74 77 -74 197v645h57v-645q0 -94 58 -155t148 -61h17q90 0 148 61t58 155v645h57zM350 1101l-99 -134h-51l116 180h69l116 -180h-51z" />
    <glyph glyph-name="Udieresis" unicode="&#xdc;" horiz-adv-x="701" 
d="M622 900v-645q0 -120 -74 -197q-73 -76 -189 -76h-17q-116 0 -189 76q-74 77 -74 197v645h57v-645q0 -94 58 -155t148 -61h17q90 0 148 61t58 155v645h57zM212 1026q-12 13 -12 32t12.5 31.5t31.5 12.5t32 -12.5t13 -31.5t-13 -32t-32 -13t-32 13zM425 1026
q-13 13 -13 32t13 31.5t32 12.5t31.5 -12.5t12.5 -31.5t-12.5 -32t-31.5 -13t-32 13z" />
    <glyph glyph-name="Yacute" unicode="&#xdd;" horiz-adv-x="614" 
d="M6 900h62l238 -525l237 525h65l-273 -602v-298h-57v298zM370 1147h68l-124 -180h-50z" />
    <glyph glyph-name="agrave" unicode="&#xe0;" horiz-adv-x="555" 
d="M272 379q94 0 155 -55v63q0 71 -44 115q-43 44 -111 44h-13q-40 0 -75 -18.5t-55 -49.5l-50 30q8 13 28 35q59 60 152 60h13q93 0 152 -60q60 -61 60 -156v-387h-57v38q-62 -56 -155 -56h-13q-92 0 -152 53q-60 52 -60 136v20q0 84 60 136q59 52 152 52h13zM134 892h68
l106 -180h-50zM272 322h-13q-68 0 -111 -36q-44 -38 -44 -95v-20q0 -57 44 -95q44 -37 111 -37h13q67 0 111 37q44 38 44 95v20q0 57 -44 95q-43 36 -111 36z" />
    <glyph glyph-name="aacute" unicode="&#xe1;" horiz-adv-x="555" 
d="M272 379q94 0 155 -55v63q0 71 -44 115q-43 44 -111 44h-13q-40 0 -75 -18.5t-55 -49.5l-50 30q8 13 28 35q59 60 152 60h13q93 0 152 -60q60 -61 60 -156v-387h-57v38q-62 -56 -155 -56h-13q-92 0 -152 53q-60 52 -60 136v20q0 84 60 136q59 52 152 52h13zM329 892h68
l-124 -180h-50zM272 322h-13q-68 0 -111 -36q-44 -38 -44 -95v-20q0 -57 44 -95q44 -37 111 -37h13q67 0 111 37q44 38 44 95v20q0 57 -44 95q-43 36 -111 36z" />
    <glyph glyph-name="acircumflex" unicode="&#xe2;" horiz-adv-x="555" 
d="M272 379q94 0 155 -55v63q0 71 -44 115q-43 44 -111 44h-13q-40 0 -75 -18.5t-55 -49.5l-50 30q8 13 28 35q59 60 152 60h13q93 0 152 -60q60 -61 60 -156v-387h-57v38q-62 -56 -155 -56h-13q-92 0 -152 53q-60 52 -60 136v20q0 84 60 136q59 52 152 52h13zM272 322h-13
q-68 0 -111 -36q-44 -38 -44 -95v-20q0 -57 44 -95q44 -37 111 -37h13q67 0 111 37q44 38 44 95v20q0 57 -44 95q-43 36 -111 36zM266 846l-100 -134h-51l116 180h69l116 -180h-51z" />
    <glyph glyph-name="atilde" unicode="&#xe3;" horiz-adv-x="555" 
d="M272 379q94 0 155 -55v63q0 71 -44 115q-43 44 -111 44h-13q-40 0 -75 -18.5t-55 -49.5l-50 30q8 13 28 35q59 60 152 60h13q93 0 152 -60q60 -61 60 -156v-387h-57v38q-62 -56 -155 -56h-13q-92 0 -152 53q-60 52 -60 136v20q0 84 60 136q59 52 152 52h13zM100 717
q0 51 31.5 88.5t80.5 37.5q22 0 53.5 -31t53.5 -31q29 0 47.5 22t18.5 53h46q0 -55 -32 -91q-30 -35 -80 -35q-22 0 -53.5 31t-53.5 31q-29 0 -47.5 -22t-18.5 -53h-46zM272 322h-13q-68 0 -111 -36q-44 -38 -44 -95v-20q0 -57 44 -95q44 -37 111 -37h13q67 0 111 37
q44 38 44 95v20q0 57 -44 95q-43 36 -111 36z" />
    <glyph glyph-name="adieresis" unicode="&#xe4;" horiz-adv-x="555" 
d="M272 379q94 0 155 -55v63q0 71 -44 115q-43 44 -111 44h-13q-40 0 -75 -18.5t-55 -49.5l-50 30q8 13 28 35q59 60 152 60h13q93 0 152 -60q60 -61 60 -156v-387h-57v38q-62 -56 -155 -56h-13q-92 0 -152 53q-60 52 -60 136v20q0 84 60 136q59 52 152 52h13zM127 770
q-12 13 -12 32t12.5 32t31.5 13t32 -13t13 -32t-13 -31.5t-32 -12.5t-32 12zM340 770q-13 13 -13 32t13 32t32 13t31.5 -13t12.5 -32t-12.5 -31.5t-31.5 -12.5t-32 12zM272 322h-13q-68 0 -111 -36q-44 -38 -44 -95v-20q0 -57 44 -95q44 -37 111 -37h13q67 0 111 37
q44 38 44 95v20q0 57 -44 95q-43 36 -111 36z" />
    <glyph glyph-name="aring" unicode="&#xe5;" horiz-adv-x="555" 
d="M272 379q94 0 155 -55v63q0 71 -44 115q-43 44 -111 44h-13q-40 0 -75 -18.5t-55 -49.5l-50 30q8 13 28 35q59 60 152 60h13q93 0 152 -60q60 -61 60 -156v-387h-57v38q-62 -56 -155 -56h-13q-92 0 -152 53q-60 52 -60 136v20q0 84 60 136q59 52 152 52h13zM272 322h-13
q-68 0 -111 -36q-44 -38 -44 -95v-20q0 -57 44 -95q44 -37 111 -37h13q67 0 111 37q44 38 44 95v20q0 57 -44 95q-43 36 -111 36zM268 911q42 0 69 -29q27 -28 27 -75v-10q0 -47 -27 -75q-27 -29 -69 -29h-5q-42 0 -69 29q-27 28 -27 75v10q0 47 27 75q27 29 69 29h5z
M268 873h-5q-26 0 -42 -19.5t-16 -46.5v-10q0 -27 16 -46.5t42 -19.5h5q26 0 42 19.5t16 46.5v10q0 27 -16 46.5t-42 19.5z" />
    <glyph glyph-name="ae" unicode="&#xe6;" horiz-adv-x="873" 
d="M606 -18q-54 0 -100.5 31.5t-70.5 79.5q-14 -35 -39 -58q-54 -53 -139 -53h-11q-85 0 -139 53q-54 52 -54 136v20q0 83 54 136q53 52 139 52h11q83 0 136 -49v57q0 71 -38 115q-36 44 -98 44h-11q-36 0 -67 -19.5t-48 -50.5l-51 27q12 23 27 40q54 60 139 60h11
q85 0 139 -60q22 -25 36 -57q10 20 21 35q59 82 153 82h13q94 0 153 -82q57 -78 60 -200v-57h-382q2 -95 44 -159q44 -66 112 -66h13q44 0 78 29t53 72l52 -23q-11 -26 -30 -53q-59 -82 -153 -82h-13zM257 322h-11q-61 0 -98 -36q-38 -38 -38 -95v-20q0 -57 38 -95
q38 -37 98 -37h11q60 0 98 37q38 38 38 95v20q0 57 -38 95q-37 36 -98 36zM775 321q-2 95 -44 159q-44 66 -112 66h-13q-68 0 -112 -66q-42 -64 -44 -159h325z" />
    <glyph glyph-name="ccedilla" unicode="&#xe7;" horiz-adv-x="564" 
d="M368 -187q0 31 -20 52.5t-50 21.5h-48l17 96q-92 8 -153 81q-67 82 -67 211v35q0 129 67 211q68 82 173 82h16q107 0 173 -82q31 -38 49 -92l-54 -17q-11 36 -36 68q-52 66 -132 66h-16q-80 0 -132 -66q-51 -66 -51 -170v-35q0 -104 51 -170q52 -66 132 -66h16
q80 0 132 66q25 32 36 68l54 -17q-18 -54 -49 -92q-63 -79 -167 -82l-9 -49q49 -2 81 -34q32 -33 32 -86v-11q0 -53 -32 -86q-33 -33 -83 -33h-6q-36 0 -65 19t-41 50l43 17q18 -41 63 -41h6q30 0 50 21.5t20 52.5v11z" />
    <glyph glyph-name="egrave" unicode="&#xe8;" horiz-adv-x="584" 
d="M164 892h67l107 -180h-50zM303 39q50 0 92.5 29.5t62.5 73.5l51 -25q-14 -30 -33 -53q-66 -82 -173 -82h-16q-105 0 -173 82q-67 82 -67 211v35q0 129 67 211q68 82 173 82h16q107 0 173 -82q64 -77 67 -200v-57h-439q3 -98 51 -159q52 -66 132 -66h16zM486 321
q-3 98 -51 159q-52 66 -132 66h-16q-80 0 -132 -66q-48 -61 -51 -159h382z" />
    <glyph glyph-name="eacute" unicode="&#xe9;" horiz-adv-x="584" 
d="M359 892h67l-124 -180h-50zM303 39q50 0 92.5 29.5t62.5 73.5l51 -25q-14 -30 -33 -53q-66 -82 -173 -82h-16q-105 0 -173 82q-67 82 -67 211v35q0 129 67 211q68 82 173 82h16q107 0 173 -82q64 -77 67 -200v-57h-439q3 -98 51 -159q52 -66 132 -66h16zM486 321
q-3 98 -51 159q-52 66 -132 66h-16q-80 0 -132 -66q-48 -61 -51 -159h382z" />
    <glyph glyph-name="ecircumflex" unicode="&#xea;" horiz-adv-x="584" 
d="M303 39q50 0 92.5 29.5t62.5 73.5l51 -25q-14 -30 -33 -53q-66 -82 -173 -82h-16q-105 0 -173 82q-67 82 -67 211v35q0 129 67 211q68 82 173 82h16q107 0 173 -82q64 -77 67 -200v-57h-439q3 -98 51 -159q52 -66 132 -66h16zM486 321q-3 98 -51 159q-52 66 -132 66h-16
q-80 0 -132 -66q-48 -61 -51 -159h382zM295 845l-99 -133h-52l116 180h70l116 -180h-52z" />
    <glyph glyph-name="edieresis" unicode="&#xeb;" horiz-adv-x="584" 
d="M157 770q-13 13 -13 32t13 32t32 13t31.5 -13t12.5 -32t-12.5 -31.5t-31.5 -12.5t-32 12zM369 770q-12 13 -12 32t12.5 32t31.5 13t32 -13t13 -32t-13 -31.5t-32 -12.5t-32 12zM303 39q50 0 92.5 29.5t62.5 73.5l51 -25q-14 -30 -33 -53q-66 -82 -173 -82h-16
q-105 0 -173 82q-67 82 -67 211v35q0 129 67 211q68 82 173 82h16q107 0 173 -82q64 -77 67 -200v-57h-439q3 -98 51 -159q52 -66 132 -66h16zM486 321q-3 98 -51 159q-52 66 -132 66h-16q-80 0 -132 -66q-48 -61 -51 -159h382z" />
    <glyph glyph-name="igrave" unicode="&#xec;" horiz-adv-x="224" 
d="M84 0v585h57v-585h-57zM-19 892h68l106 -180h-50z" />
    <glyph glyph-name="iacute" unicode="&#xed;" horiz-adv-x="224" 
d="M84 0v585h57v-585h-57zM176 892h67l-124 -180h-50z" />
    <glyph glyph-name="icircumflex" unicode="&#xee;" horiz-adv-x="224" 
d="M84 0v585h57v-585h-57zM112 845l-99 -133h-51l115 180h70l116 -180h-52z" />
    <glyph glyph-name="idieresis" unicode="&#xef;" horiz-adv-x="224" 
d="M84 0v585h57v-585h-57zM-26 770q-13 13 -13 32t13 32t32 13t32 -13t13 -32t-13 -31.5t-32 -12.5t-32 12zM186 770q-12 13 -12 32t12.5 32t31.5 13t32 -13t13 -32t-13 -31.5t-32 -12.5t-32 12z" />
    <glyph glyph-name="ntilde" unicode="&#xf1;" 
d="M230 792q-29 0 -47.5 -22t-18.5 -53h-46q0 55 31 90q31 36 81 36q22 0 53 -31t53 -31q29 0 48 22t19 53h45q0 -56 -31 -91q-30 -35 -81 -35q-22 0 -53 31t-53 31zM128 536q67 67 180 67h12q78 0 127 -59t49 -150v-394h-57v394q0 66 -33 109t-86 43h-12q-78 0 -130 -43
q-50 -42 -50 -109v-394h-57v585h57v-49z" />
    <glyph glyph-name="ograve" unicode="&#xf2;" horiz-adv-x="590" 
d="M164 892h67l107 -180h-50zM303 546h-16q-80 0 -132 -66q-51 -66 -51 -170v-35q0 -104 51 -170q52 -66 132 -66h16q80 0 132 66q51 66 51 170v35q0 104 -51 170q-52 66 -132 66zM303 603q107 0 173 -82q67 -82 67 -211v-35q0 -129 -67 -211q-66 -82 -173 -82h-16
q-105 0 -173 82q-67 82 -67 211v35q0 129 67 211q68 82 173 82h16z" />
    <glyph glyph-name="oacute" unicode="&#xf3;" horiz-adv-x="590" 
d="M359 892h67l-124 -180h-50zM303 546h-16q-80 0 -132 -66q-51 -66 -51 -170v-35q0 -104 51 -170q52 -66 132 -66h16q80 0 132 66q51 66 51 170v35q0 104 -51 170q-52 66 -132 66zM303 603q107 0 173 -82q67 -82 67 -211v-35q0 -129 -67 -211q-66 -82 -173 -82h-16
q-105 0 -173 82q-67 82 -67 211v35q0 129 67 211q68 82 173 82h16z" />
    <glyph glyph-name="ocircumflex" unicode="&#xf4;" horiz-adv-x="590" 
d="M303 546h-16q-80 0 -132 -66q-51 -66 -51 -170v-35q0 -104 51 -170q52 -66 132 -66h16q80 0 132 66q51 66 51 170v35q0 104 -51 170q-52 66 -132 66zM303 603q107 0 173 -82q67 -82 67 -211v-35q0 -129 -67 -211q-66 -82 -173 -82h-16q-105 0 -173 82q-67 82 -67 211v35
q0 129 67 211q68 82 173 82h16zM295 845l-99 -133h-52l116 180h70l116 -180h-52z" />
    <glyph glyph-name="otilde" unicode="&#xf5;" horiz-adv-x="590" 
d="M242 792q-29 0 -47.5 -22t-18.5 -53h-46q0 55 31 90q31 36 81 36q22 0 53 -31t53 -31q29 0 47.5 22t18.5 53h46q0 -56 -31 -91q-30 -35 -81 -35q-22 0 -53 31t-53 31zM303 546h-16q-80 0 -132 -66q-51 -66 -51 -170v-35q0 -104 51 -170q52 -66 132 -66h16q80 0 132 66
q51 66 51 170v35q0 104 -51 170q-52 66 -132 66zM303 603q107 0 173 -82q67 -82 67 -211v-35q0 -129 -67 -211q-66 -82 -173 -82h-16q-105 0 -173 82q-67 82 -67 211v35q0 129 67 211q68 82 173 82h16z" />
    <glyph glyph-name="odieresis" unicode="&#xf6;" horiz-adv-x="590" 
d="M157 770q-13 13 -13 32t13 32t32 13t31.5 -13t12.5 -32t-12.5 -31.5t-31.5 -12.5t-32 12zM369 770q-12 13 -12 32t12.5 32t31.5 13t32 -13t13 -32t-13 -31.5t-32 -12.5t-32 12zM303 546h-16q-80 0 -132 -66q-51 -66 -51 -170v-35q0 -104 51 -170q52 -66 132 -66h16
q80 0 132 66q51 66 51 170v35q0 104 -51 170q-52 66 -132 66zM303 603q107 0 173 -82q67 -82 67 -211v-35q0 -129 -67 -211q-66 -82 -173 -82h-16q-105 0 -173 82q-67 82 -67 211v35q0 129 67 211q68 82 173 82h16z" />
    <glyph glyph-name="oe" unicode="&#x153;" horiz-adv-x="932" 
d="M472 465q24 59 75 98.5t114 39.5h13q95 0 156 -82q58 -76 61 -200v-57h-391q2 -95 45 -159q44 -66 116 -66h13q45 0 80 29t55 72l52 -23q-24 -58 -75 -96.5t-112 -38.5h-13q-63 0 -114 39.5t-75 98.5q-24 -59 -75 -98.5t-114 -39.5h-13q-95 0 -156 82q-61 81 -61 211v35
q0 130 61 211q61 82 156 82h13q63 0 114 -39.5t75 -98.5zM283 546h-13q-71 0 -115 -66q-45 -66 -45 -170v-35q0 -104 45 -170q44 -66 115 -66h13q72 0 116 66q44 65 44 170v35q0 105 -44 170q-44 66 -116 66zM834 321q-2 95 -45 159q-44 66 -115 66h-13q-72 0 -116 -66
q-43 -64 -45 -159h334z" />
    <glyph glyph-name="ugrave" unicode="&#xf9;" 
d="M146 892h68l106 -180h-50zM433 42q-57 -60 -149 -60h-13q-89 0 -148 59q-58 59 -58 150v394h57v-394q0 -65 42 -109q42 -43 107 -43h13q65 0 107 43q42 44 42 109v394h57v-585h-57v42z" />
    <glyph glyph-name="uacute" unicode="&#xfa;" 
d="M341 892h67l-123 -180h-50zM433 42q-57 -60 -149 -60h-13q-89 0 -148 59q-58 59 -58 150v394h57v-394q0 -65 42 -109q42 -43 107 -43h13q65 0 107 43q42 44 42 109v394h57v-585h-57v42z" />
    <glyph glyph-name="ucircumflex" unicode="&#xfb;" 
d="M433 42q-57 -60 -149 -60h-13q-89 0 -148 59q-58 59 -58 150v394h57v-394q0 -65 42 -109q42 -43 107 -43h13q65 0 107 43q42 44 42 109v394h57v-585h-57v42zM278 846l-100 -134h-51l116 180h69l116 -180h-51z" />
    <glyph glyph-name="udieresis" unicode="&#xfc;" 
d="M139 770q-13 13 -13 32t13 32t32 13t32 -13t13 -32t-13 -31.5t-32 -12.5t-32 12zM352 770q-13 13 -13 32t13 32t32 13t31.5 -13t12.5 -32t-12.5 -31.5t-31.5 -12.5t-32 12zM433 42q-57 -60 -149 -60h-13q-89 0 -148 59q-58 59 -58 150v394h57v-394q0 -65 42 -109
q42 -43 107 -43h13q65 0 107 43q42 44 42 109v394h57v-585h-57v42z" />
    <glyph glyph-name="yacute" unicode="&#xfd;" horiz-adv-x="496" 
d="M6 585h61l179 -493l180 493h64l-323 -885h-64l113 309zM311 892h68l-124 -180h-50z" />
    <glyph glyph-name="germandbls" unicode="&#xdf;" horiz-adv-x="584" 
d="M477 680q0 -54 -19 -103t-55 -77q35 -18 60 -48q62 -72 62 -184v-30q0 -112 -62 -184q-63 -72 -158 -72h-14q-93 0 -153 65l42 40q46 -48 111 -48h14q71 0 117 56t46 143v30q0 87 -46 143q-46 55 -117 55h-57v58h57q51 0 83 43t32 113v24q0 68 -39 113q-39 44 -101 44
h-12q-62 0 -101 -44q-39 -45 -39 -113v-704h-57v704q0 93 55 154q55 60 142 60h12q87 0 142 -60q55 -61 55 -154v-24z" />
    <glyph glyph-name="space" unicode=" " horiz-adv-x="354" 
 />
    <glyph glyph-name="Euro" unicode="&#x20ac;" horiz-adv-x="754" 
d="M618 149q29 47 45 101l46 -19q-11 -36 -24.5 -66.5t-31.5 -56.5q-38 -58 -93.5 -90.5t-116.5 -32.5h-20q-62 0 -117.5 32.5t-93.5 90.5q-51 76 -69 180h-110v57h102q-2 19 -3 39t-1 40v58h-98v57h100q11 156 79 259q38 58 93.5 90.5t117.5 32.5h20q61 0 116.5 -32.5
t93.5 -90.5q34 -49 56 -123l-46 -19q-16 54 -45 101q-32 51 -77.5 79t-97.5 28h-20q-53 0 -98.5 -28t-77.5 -79q-57 -88 -66 -218h336v-57h-338v-58q0 -20 1 -40t3 -39h334v-57h-325q16 -77 55 -139q32 -51 77.5 -79t98.5 -28h20q52 0 97.5 28t77.5 79z" />
    <glyph glyph-name="hyphen" unicode="-" horiz-adv-x="372" 
d="M47 264v57h277v-57h-277z" />
    <glyph glyph-name="exclamdown" unicode="&#xa1;" horiz-adv-x="293" 
d="M174 679v-679h-57v679h57zM177 888q12 -12 12 -31t-12 -31t-31 -12t-31.5 12t-12.5 31t12.5 31t31.5 12t31 -12z" />
    <glyph glyph-name="questiondown" unicode="&#xbf;" horiz-adv-x="549" 
d="M317 697v-257h-35q-65 0 -107 -50q-42 -49 -42 -128v-27q0 -79 42 -128q42 -50 107 -50h13q65 0 107 50q16 21 27 45l54 -18q-14 -39 -40 -68q-57 -66 -148 -66h-13q-91 0 -148 66q-58 65 -58 169v27q0 104 58 169q49 57 126 65v201h57zM320 906q12 -12 12 -31t-12 -31
t-31 -12t-31.5 12t-12.5 31t12.5 31t31.5 12t31 -12z" />
    <glyph glyph-name="Oslash" unicode="&#xd8;" horiz-adv-x="826" 
d="M425 861h-24q-62 0 -116.5 -28.5t-92.5 -78.5q-82 -108 -82 -275v-58q0 -167 82 -275q38 -50 92.5 -78.5t116.5 -28.5h24q62 0 116.5 28.5t92.5 78.5q82 108 82 275v58q0 167 -82 275q-38 50 -92.5 78.5t-116.5 28.5zM425 918q73 0 139 -32.5t112 -90.5q97 -123 97 -316
v-58q0 -193 -97 -316q-46 -58 -112 -90.5t-139 -32.5h-24q-73 0 -139 32.5t-112 90.5q-97 123 -97 316v58q0 193 97 316q46 58 112 90.5t139 32.5h24zM215 -45l335 990h60l-336 -990h-59z" />
    <glyph glyph-name="oslash" unicode="&#xf8;" horiz-adv-x="590" 
d="M303 546h-16q-80 0 -132 -66q-51 -66 -51 -170v-35q0 -104 51 -170q52 -66 132 -66h16q80 0 132 66q51 66 51 170v35q0 104 -51 170q-52 66 -132 66zM303 603q107 0 173 -82q67 -82 67 -211v-35q0 -129 -67 -211q-66 -82 -173 -82h-16q-105 0 -173 82q-67 82 -67 211v35
q0 129 67 211q68 82 173 82h16zM116.537 -124.546l286.664 848.002h51.3428l-287.52 -848.002h-50.4873z" />
    <glyph glyph-name="quotesingle" unicode="'" horiz-adv-x="138" 
d="M35 900h57v-293h-57v293z" />
  </font>
</defs>
</svg>
